<?xml version="1.0" standalone="no"?><!DOCTYPE svg PUBLIC "-//W3C//DTD SVG 1.1//EN" "http://www.w3.org/Graphics/SVG/1.1/DTD/svg11.dtd"><svg t="1612104828154" class="icon" viewBox="0 0 1024 1024" version="1.1" xmlns="http://www.w3.org/2000/svg" p-id="3163" xmlns:xlink="http://www.w3.org/1999/xlink" width="32" height="32"><defs><style type="text/css"></style></defs><path d="M513.109333 85.333333a425.6 425.6 0 0 0-134.528 829.397334c21.333333 3.84 28.970667-9.258667 28.970667-20.522667 0-10.112-0.341333-36.906667-0.469333-72.533333-118.4 25.6-143.402667-57.088-143.402667-57.088a112.426667 112.426667 0 0 0-47.232-62.250667c-38.4-26.410667 2.944-25.813333 2.944-25.813333 27.306667 3.754667 51.413333 19.925333 65.152 43.861333a90.624 90.624 0 0 0 123.733333 35.370667c1.962667-21.589333 11.605333-41.770667 27.093334-56.917334-94.464-10.709333-193.792-47.232-193.792-210.346666a164.906667 164.906667 0 0 1 43.776-113.962667 153.088 153.088 0 0 1 4.266666-112.64s35.712-11.477333 116.992 43.562667a402.730667 402.730667 0 0 1 212.992 0c81.322667-55.082667 116.992-43.562667 116.992-43.562667 15.786667 35.626667 17.28 75.946667 4.266667 112.64a163.84 163.84 0 0 1 43.690667 114.133333c0 163.541333-99.413333 199.466667-194.218667 210.005334 20.48 20.906667 30.933333 49.578667 28.8 78.762666 0 56.917333-0.512 102.826667-0.512 116.778667 0 11.392 7.594667 24.618667 29.312 20.437333A425.6 425.6 0 0 0 513.109333 85.333333z" fill="#000000" p-id="3164"></path></svg>